<svg width="32" height="32" viewBox="0 0 32 32" fill="none" xmlns="http://www.w3.org/2000/svg">
<path d="M5.60055 32H26.3994C28.2736 32 29.6756 31.5391 30.6053 30.6173C31.5351 29.6955 32 28.3128 32 26.4691V5.53087C32 3.68726 31.5351 2.30455 30.6053 1.38273C29.6756 0.460907 28.2736 0 26.3994 0H5.60055C3.74102 0 2.3427 0.460907 1.40562 1.38273C0.46854 2.30455 0 3.68726 0 5.53087V26.4691C0 28.3128 0.46854 29.6955 1.40562 30.6173C2.3427 31.5391 3.74102 32 5.60055 32Z" fill="#007AE1"/>
<path d="M14.0563 24.45C13.7195 24.45 13.4084 24.3731 13.1228 24.2195C12.8373 24.0659 12.5628 23.8208 12.2992 23.4842L8.21411 18.3704C7.90666 17.9753 7.75293 17.551 7.75293 17.0974C7.75293 16.6584 7.903 16.278 8.20313 15.9561C8.5033 15.6342 8.88034 15.4732 9.33425 15.4732C9.61244 15.4732 9.86867 15.5318 10.103 15.6489C10.3372 15.7659 10.5715 15.9854 10.8058 16.3073L13.9684 20.5432L20.9746 9.19616C21.3406 8.59624 21.8092 8.29628 22.3802 8.29628C22.8048 8.29628 23.1892 8.42798 23.5333 8.69138C23.8774 8.95476 24.0494 9.32055 24.0494 9.78877C24.0494 10.0082 23.9945 10.2314 23.8847 10.4582C23.7749 10.685 23.6614 10.9008 23.5443 11.1056L15.7035 23.4842C15.3082 24.128 14.7591 24.45 14.0563 24.45Z" fill="#F2F2F7"/>
</svg>
