<svg width="55" height="55" viewBox="0 0 72 72" fill="#32ade6" xmlns="http://www.w3.org/2000/svg">
<path d="M12.7268 71.3906H58.967C63.1337 71.3906 66.2506 70.3653 68.3176 68.3145C70.3847 66.2637 71.4182 63.1875 71.4182 59.0859V12.5039C71.4182 8.40238 70.3847 5.32621 68.3176 3.27541C66.2506 1.22461 63.1337 0.199219 58.967 0.199219H12.7268C8.59268 0.199219 5.48395 1.22461 3.40061 3.27541C1.31729 5.32621 0.275635 8.40238 0.275635 12.5039V59.0859C0.275635 63.1875 1.31729 66.2637 3.40061 68.3145C5.48395 70.3653 8.59268 71.3906 12.7268 71.3906ZM12.8245 64.3106C11.0666 64.3106 9.70758 63.8467 8.74732 62.919C7.78705 61.9912 7.30691 60.5996 7.30691 58.7441V12.8457C7.30691 11.0228 7.78705 9.63932 8.74732 8.69532C9.70758 7.75132 11.0666 7.27932 12.8245 7.27932H58.8694C60.6272 7.27932 61.9862 7.75132 62.9465 8.69532C63.9068 9.63932 64.387 11.0228 64.387 12.8457V58.7441C64.387 60.5996 63.9068 61.9912 62.9465 62.919C61.9862 63.8467 60.6272 64.3106 58.8694 64.3106H12.8245Z"/>
<path d="M35.0901 43.7539C36.1968 43.7539 37.0595 43.4528 37.678 42.8506C38.2965 42.2484 38.6057 41.5241 38.6057 40.6777C38.6057 40.6451 38.6057 40.6045 38.6057 40.5557C38.6057 40.5068 38.6057 40.4498 38.6057 40.3848C38.6057 39.3756 38.9312 38.4886 39.5823 37.7236C40.2333 36.9586 41.1936 36.153 42.4631 35.3066C44.286 34.1347 45.8323 32.8733 47.1018 31.5225C48.3713 30.1715 49.0061 28.2916 49.0061 25.8828C49.0061 22.5299 47.7284 19.999 45.1731 18.29C42.6178 16.581 39.6799 15.7266 36.3596 15.7266C33.0067 15.7266 30.2561 16.3695 28.1077 17.6553C25.9592 18.9411 24.592 20.4303 24.0061 22.123C23.7457 22.8392 23.6155 23.5228 23.6155 24.1738C23.6155 25.1178 23.9329 25.8421 24.5676 26.3467C25.2024 26.8512 25.8779 27.1035 26.594 27.1035C27.3427 27.1035 27.9612 26.957 28.4495 26.6641C28.9378 26.3711 29.3935 25.9642 29.8166 25.4434L30.6467 24.4668C31.4605 23.4576 32.3069 22.7252 33.1858 22.2695C34.0647 21.8137 35.0412 21.5859 36.1155 21.5859C37.7105 21.5859 38.9882 22.0172 39.9485 22.8799C40.9088 23.7425 41.3889 24.8574 41.3889 26.2246C41.3889 27.5266 40.9739 28.5764 40.1438 29.374C39.3137 30.1715 38.0849 31.1237 36.4573 32.2305C35.1552 33.1745 34.024 34.2243 33.0637 35.3799C32.1034 36.5355 31.6233 38.0898 31.6233 40.043C31.6233 40.0755 31.6233 40.1162 31.6233 40.165C31.6233 40.2138 31.6233 40.2545 31.6233 40.2871C31.6233 42.5983 32.7789 43.7539 35.0901 43.7539ZM34.9924 55.4727C36.1969 55.4727 37.2467 55.0576 38.1418 54.2275C39.037 53.3974 39.4846 52.3802 39.4846 51.1758C39.4846 49.9388 39.037 48.9134 38.1418 48.0996C37.2467 47.2858 36.1969 46.8789 34.9924 46.8789C33.788 46.8789 32.7382 47.2939 31.843 48.124C30.9478 48.954 30.5002 49.9713 30.5002 51.1758C30.5002 52.3476 30.9478 53.3567 31.843 54.2031C32.7382 55.0495 33.788 55.4727 34.9924 55.4727Z"/>
</svg>
