<svg width="55" height="55" viewBox="0 0 84 85" fill="#ffcc00" xmlns="http://www.w3.org/2000/svg">
<path d="M41.8475 62.668C45.4607 62.668 48.7729 61.7647 51.784 59.958C54.795 58.1513 57.2039 55.7425 59.0106 52.7314C60.8172 49.7203 61.7205 46.3919 61.7205 42.7461C61.7205 39.1002 60.8172 35.7718 59.0106 32.7607C57.2039 29.7496 54.795 27.3408 51.784 25.5342C48.7729 23.7275 45.4607 22.8242 41.8475 22.8242C38.2017 22.8242 34.8732 23.7275 31.8621 25.5342C28.851 27.3408 26.4422 29.7496 24.6356 32.7607C22.8289 35.7718 21.9256 39.1002 21.9256 42.7461C21.9256 46.3919 22.8289 49.7203 24.6356 52.7314C26.4422 55.7425 28.851 58.1513 31.8621 59.958C34.8732 61.7647 38.2017 62.668 41.8475 62.668ZM41.8475 56.0273C39.4061 56.0273 37.1844 55.4251 35.1825 54.2207C33.1805 53.0163 31.5773 51.405 30.3729 49.3867C29.1684 47.3685 28.5662 45.155 28.5662 42.7461C28.5662 40.3372 29.1684 38.1237 30.3729 36.1055C31.5773 34.0872 33.1805 32.4759 35.1825 31.2715C37.1844 30.067 39.4061 29.4648 41.8475 29.4648C44.2563 29.4648 46.4617 30.067 48.4637 31.2715C50.4656 32.4759 52.0688 34.0872 53.2733 36.1055C54.4777 38.1237 55.0799 40.3372 55.0799 42.7461C55.0799 45.155 54.4777 47.3685 53.2733 49.3867C52.0688 51.405 50.4656 53.0163 48.4637 54.2207C46.4617 55.4251 44.2563 56.0273 41.8475 56.0273ZM45.6561 4.80659C45.6561 3.79752 45.2817 2.91048 44.533 2.14548C43.7843 1.38048 42.8891 0.997986 41.8475 0.997986C40.8058 0.997986 39.9106 1.38048 39.162 2.14548C38.4132 2.91048 38.0389 3.79752 38.0389 4.80659V12.668C38.0389 13.6771 38.4132 14.5641 39.162 15.3291C39.9106 16.0941 40.8058 16.4766 41.8475 16.4766C42.8891 16.4766 43.7843 16.0941 44.533 15.3291C45.2817 14.5641 45.6561 13.6771 45.6561 12.668V4.80659ZM60.3534 18.8691C59.6372 19.5853 59.2791 20.4724 59.2791 21.5303C59.2791 22.5882 59.6372 23.4915 60.3534 24.2402C61.102 24.9564 62.0053 25.3226 63.0633 25.3389C64.1212 25.3552 65.0245 24.9889 65.7733 24.2402L71.3397 18.6738C72.0558 17.9251 72.4139 17.0137 72.4139 15.9395C72.4139 14.8652 72.0558 13.97 71.3397 13.2539C70.5909 12.5378 69.6876 12.1797 68.6297 12.1797C67.5717 12.1797 66.6847 12.5378 65.9686 13.2539L60.3534 18.8691ZM79.6405 46.5547C80.6495 46.5547 81.5366 46.1803 82.3016 45.4316C83.0666 44.6829 83.4491 43.7878 83.4491 42.7461C83.4491 41.7044 83.0666 40.8092 82.3016 40.0605C81.5366 39.3118 80.6495 38.9375 79.6405 38.9375H71.828C70.7863 38.9375 69.8911 39.3118 69.1424 40.0605C68.3937 40.8092 68.0194 41.7044 68.0194 42.7461C68.0194 43.7878 68.3937 44.6829 69.1424 45.4316C69.8911 46.1803 70.7863 46.5547 71.828 46.5547H79.6405ZM65.7245 61.3008C65.0083 60.5847 64.1212 60.2266 63.0633 60.2266C62.0053 60.2266 61.102 60.5847 60.3534 61.3008C59.6372 62.0495 59.2791 62.9528 59.2791 64.0107C59.2791 65.0687 59.6372 65.9557 60.3534 66.6719L65.9686 72.2871C66.6847 73.0032 67.5717 73.3532 68.6297 73.3369C69.6876 73.3206 70.5909 72.9544 71.3397 72.2383C72.0558 71.5221 72.4139 70.6351 72.4139 69.5771C72.4139 68.5192 72.0558 67.6159 71.3397 66.8672L65.7245 61.3008ZM45.6561 72.8242C45.6561 71.8151 45.2817 70.9281 44.533 70.1631C43.7843 69.3981 42.8891 69.0156 41.8475 69.0156C40.8058 69.0156 39.9106 69.3981 39.162 70.1631C38.4132 70.9281 38.0389 71.8151 38.0389 72.8242V80.6855C38.0389 81.6946 38.4132 82.5817 39.162 83.3467C39.9106 84.1116 40.8058 84.4941 41.8475 84.4941C42.8891 84.4941 43.7843 84.1116 44.533 83.3467C45.2817 82.5817 45.6561 81.6946 45.6561 80.6855V72.8242ZM12.3553 66.8184C11.6066 67.567 11.2323 68.4704 11.2323 69.5283C11.2323 70.5862 11.5903 71.4733 12.3065 72.1894C13.0226 72.9056 13.9178 73.2718 14.992 73.2881C16.0662 73.3044 16.9614 72.9544 17.6776 72.2383L23.244 66.6719C23.9926 65.9557 24.367 65.0687 24.367 64.0107C24.367 62.9528 24.0089 62.0495 23.2928 61.3008C22.5766 60.5847 21.6815 60.2266 20.6073 60.2266C19.533 60.2266 18.6378 60.5847 17.9217 61.3008L12.3553 66.8184ZM4.05447 38.9375C3.01282 38.9375 2.11765 39.3118 1.36895 40.0605C0.620257 40.8092 0.245911 41.7044 0.245911 42.7461C0.245911 43.7878 0.620257 44.6829 1.36895 45.4316C2.11765 46.1803 3.01282 46.5547 4.05447 46.5547H11.8182C12.8598 46.5547 13.755 46.1803 14.5038 45.4316C15.2524 44.6829 15.6268 43.7878 15.6268 42.7461C15.6268 41.7044 15.2524 40.8092 14.5038 40.0605C13.755 39.3118 12.8598 38.9375 11.8182 38.9375H4.05447ZM17.9217 24.2402C18.6378 24.9564 19.5249 25.3145 20.5829 25.3145C21.6408 25.3145 22.5278 24.9564 23.244 24.2402C23.9926 23.5241 24.367 22.6289 24.367 21.5547C24.367 20.4805 24.0089 19.5853 23.2928 18.8691L17.7264 13.2539C17.0428 12.5378 16.1639 12.1797 15.0897 12.1797C14.0155 12.1797 13.1203 12.5378 12.4041 13.2539C11.6554 13.97 11.2811 14.8652 11.2811 15.9395C11.2811 17.0137 11.6391 17.9089 12.3553 18.625L17.9217 24.2402Z"/>
</svg>
