<svg width="72" height="72" viewBox="0 0 72 72" fill="none" xmlns="http://www.w3.org/2000/svg">
<path d="M12.4512 71.1914H58.6914C62.858 71.1914 65.9749 70.166 68.042 68.1152C70.1091 66.0645 71.1426 62.9883 71.1426 58.8867V12.3047C71.1426 8.20316 70.1091 5.12699 68.042 3.07619C65.9749 1.02539 62.858 0 58.6914 0H12.4512C8.31705 0 5.20831 1.02539 3.12498 3.07619C1.04166 5.12699 0 8.20316 0 12.3047V58.8867C0 62.9883 1.04166 66.0645 3.12498 68.1152C5.20831 70.166 8.31705 71.1914 12.4512 71.1914ZM12.5489 64.1113C10.791 64.1113 9.43195 63.6475 8.47168 62.7197C7.51141 61.792 7.03128 60.4004 7.03128 58.5449V12.6465C7.03128 10.8236 7.51141 9.4401 8.47168 8.4961C9.43195 7.5521 10.791 7.0801 12.5489 7.0801H58.5938C60.3516 7.0801 61.7106 7.5521 62.6709 8.4961C63.6312 9.4401 64.1114 10.8236 64.1114 12.6465V58.5449C64.1114 60.4004 63.6312 61.792 62.6709 62.7197C61.7106 63.6475 60.3516 64.1113 58.5938 64.1113H12.5489Z" fill="#FF3B30"/>
<path d="M24.0235 53.125C24.7396 53.125 25.3337 52.9867 25.8057 52.71C26.2777 52.4333 26.7904 51.9043 27.3438 51.1231L35.3028 39.9903H35.4492L43.4082 51.1231C43.9616 51.9043 44.4661 52.4333 44.9219 52.71C45.3776 52.9867 45.9473 53.125 46.6309 53.125C47.64 53.125 48.4619 52.832 49.0967 52.2461C49.7315 51.6602 50.0489 50.9115 50.0489 50C50.0489 49.1862 49.7884 48.4212 49.2676 47.7051L39.7949 35.1074L49.3164 22.4121C49.8698 21.696 50.1465 20.931 50.1465 20.1172C50.1465 19.2383 49.8291 18.514 49.1944 17.9444C48.5596 17.3747 47.7864 17.0899 46.875 17.0899C46.1914 17.0899 45.6136 17.2282 45.1416 17.5049C44.6696 17.7816 44.1894 18.278 43.7012 18.9942L36.084 30.1758H35.8887L28.0274 18.9453C27.539 18.2617 27.0507 17.7816 26.5625 17.5049C26.0742 17.2282 25.472 17.0899 24.7559 17.0899C23.8119 17.0899 23.0062 17.3991 22.3389 18.0176C21.6715 18.6361 21.3379 19.3848 21.3379 20.2637C21.3379 21.11 21.6471 21.9564 22.2656 22.8028L31.2012 34.8633L21.5821 47.9004C21.0937 48.6165 20.8496 49.3652 20.8496 50.1465C20.8496 50.9928 21.1588 51.7008 21.7774 52.2705C22.3958 52.8402 23.1445 53.125 24.0235 53.125Z" fill="#FF3B30"/>
</svg>
