<svg width="68" height="50" viewBox="0 0 68 50" fill="none" xmlns="http://www.w3.org/2000/svg">
<path d="M32.7944 37.4679H35.2687C39.4246 37.4679 43.0986 36.5735 46.2905 34.7847C49.4825 32.9959 51.9782 30.4627 53.7777 27.1851C55.5771 23.9075 56.4769 20.03 56.4769 15.5527V10.3149C56.4769 8.25834 55.5397 6.45351 53.6652 4.9004C51.7907 3.34724 49.1718 2.14222 45.8085 1.28533C42.4452 0.428445 38.5142 0 34.0155 0C29.5382 0 25.6125 0.428445 22.2385 1.28533C18.8644 2.14222 16.2402 3.34724 14.3657 4.9004C12.4912 6.45351 11.554 8.25834 11.554 10.3149V15.5527C11.554 19.8372 12.4537 23.6289 14.2532 26.928C16.0527 30.2271 18.5538 32.8085 21.7564 34.6722C24.9591 36.536 28.6384 37.4679 32.7944 37.4679ZM34.0155 16.1953C30.5664 16.1953 27.4869 15.9329 24.777 15.4081C22.0671 14.8833 19.9302 14.1817 18.3664 13.3033C16.8025 12.425 16.0206 11.4289 16.0206 10.3149C16.0206 9.22237 16.8025 8.23158 18.3664 7.34253C19.9302 6.45348 22.0671 5.75191 24.777 5.2378C27.4869 4.72365 30.5664 4.46658 34.0155 4.46658C37.4859 4.46658 40.5761 4.72365 43.286 5.2378C45.9959 5.75191 48.1328 6.45348 49.6967 7.34253C51.2605 8.23158 52.0424 9.22237 52.0424 10.3149C52.0424 11.4289 51.2605 12.425 49.6967 13.3033C48.1328 14.1817 45.9959 14.8833 43.286 15.4081C40.5761 15.9329 37.4859 16.1953 34.0155 16.1953ZM53.6491 26.3818H55.6093C58.544 26.3818 60.8415 25.6641 62.5016 24.2288C64.1622 22.7935 64.9925 20.8119 64.9925 18.2841C64.9925 15.7348 64.1622 13.7425 62.5016 12.3072C60.8415 10.8719 58.544 10.1543 55.6093 10.1543H53.7455V14.6208H55.6093C57.1731 14.6208 58.3835 14.9368 59.2404 15.5688C60.0975 16.2007 60.526 17.1058 60.526 18.2841C60.526 19.4195 60.0975 20.3085 59.2404 20.9511C58.3835 21.5938 57.1731 21.9151 55.6093 21.9151H53.6491V26.3818ZM33.8548 50C38.7605 50 43.2485 49.6733 47.3188 49.0199C51.389 48.3665 54.913 47.4293 57.8908 46.2082C60.8686 44.9871 63.1716 43.5304 64.7997 41.838C66.4278 40.1457 67.2419 38.2819 67.2419 36.2468C67.2419 34.7044 66.7705 33.2637 65.8277 31.9248C64.8853 30.5859 63.5465 29.3809 61.8113 28.3097C60.9755 28.6739 60.0757 28.9578 59.1118 29.1613C58.1479 29.3648 57.1196 29.488 56.027 29.5308C53.9919 32.9798 51.1856 35.6898 47.608 37.6606C44.0305 39.6315 39.9174 40.6169 35.2687 40.6169H32.7944C29.3025 40.6169 26.0838 40.0171 23.1382 38.8174C20.1926 37.6178 17.6326 35.9308 15.4582 33.7564C13.2839 31.5821 11.5862 29.0274 10.3651 26.0925C7.25881 27.2922 4.83806 28.7543 3.10283 30.4788C1.36761 32.2033 0.5 34.126 0.5 36.2468C0.5 38.2819 1.31406 40.1457 2.94219 41.838C4.57028 43.5304 6.87318 44.9871 9.8509 46.2082C12.8286 47.4293 16.3526 48.3665 20.4229 49.0199C24.4932 49.6733 28.9704 50 33.8548 50Z" fill="#A2845F"/>
</svg>
