<svg width="32" height="32" viewBox="0 0 32 32" fill="none" xmlns="http://www.w3.org/2000/svg">
<path d="M5.60055 32H26.3994C28.2736 32 29.6756 31.5391 30.6053 30.6173C31.5351 29.6955 32 28.3128 32 26.4691V5.53087C32 3.68726 31.5351 2.30455 30.6053 1.38273C29.6756 0.460907 28.2736 0 26.3994 0H5.60055C3.74102 0 2.3427 0.460907 1.40562 1.38273C0.46854 2.30455 0 3.68726 0 5.53087V26.4691C0 28.3128 0.46854 29.6955 1.40562 30.6173C2.3427 31.5391 3.74102 32 5.60055 32ZM5.6445 28.8176C4.85381 28.8176 4.2425 28.6091 3.81057 28.192C3.37864 27.775 3.16268 27.1495 3.16268 26.3155V5.6845C3.16268 4.86511 3.37864 4.24325 3.81057 3.81893C4.2425 3.39461 4.85381 3.18245 5.6445 3.18245H26.3555C27.1462 3.18245 27.7575 3.39461 28.1894 3.81893C28.6214 4.24325 28.8374 4.86511 28.8374 5.6845V26.3155C28.8374 27.1495 28.6214 27.775 28.1894 28.192C27.7575 28.6091 27.1462 28.8176 26.3555 28.8176H5.6445Z" fill="#007AE1"/>
<path d="M14.1222 24.1427C14.7811 24.1427 15.3082 23.8354 15.7035 23.2209L23.2588 11.2812C23.3759 11.091 23.4857 10.8898 23.5882 10.6776C23.6907 10.4655 23.7419 10.2423 23.7419 10.0082C23.7419 9.56927 23.5772 9.22177 23.2478 8.96571C22.9184 8.70965 22.5487 8.58162 22.1387 8.58162C21.5969 8.58162 21.1503 8.87425 20.7989 9.45952L14.0343 20.3896L11.0035 16.3073C10.7692 16 10.5349 15.7915 10.3006 15.6818C10.0664 15.572 9.81747 15.5172 9.55392 15.5172C9.12928 15.5172 8.77055 15.6708 8.47773 15.9781C8.18488 16.2853 8.03845 16.6511 8.03845 17.0755C8.03845 17.4998 8.18488 17.9021 8.47773 18.2826L12.431 23.2209C12.6799 23.5574 12.9398 23.7952 13.2107 23.9342C13.4816 24.0732 13.7854 24.1427 14.1222 24.1427Z" fill="#007AE1"/>
</svg>
