<svg width="55" height="55" viewBox="0 0 40 40" fill="#5856d6" xmlns="http://www.w3.org/2000/svg">
<path d="M30.8918 26.3924C27.3484 26.3924 24.2875 25.7221 21.709 24.3813C19.1306 23.0406 17.1468 21.1288 15.7578 18.646C14.3687 16.1632 13.6742 13.2169 13.6742 9.80715C13.6742 8.33401 13.7865 6.98087 14.0111 5.74773C14.2356 4.51459 14.5226 3.57526 14.8719 2.92972C15.0383 2.61524 15.1423 2.36695 15.1839 2.18485C15.2254 2.00278 15.2462 1.79587 15.2462 1.56414C15.2462 1.21654 15.0965 0.868962 14.7971 0.521397C14.4976 0.173798 14.115 0 13.6492 0C13.5661 0 13.4247 0.0165402 13.225 0.0496255C13.0254 0.0827446 12.7676 0.157237 12.4515 0.273103C10.0228 1.26624 7.87266 2.72282 6.00118 4.64285C4.1297 6.56292 2.66163 8.77676 1.59699 11.2844C0.532329 13.7921 0 16.4197 0 19.1674C0 22.1468 0.511535 24.8903 1.53461 27.398C2.55768 29.9056 3.99247 32.0822 5.83898 33.9278C7.68548 35.7733 9.86887 37.2051 12.3891 38.2231C14.9094 39.241 17.6667 39.75 20.661 39.75C23.5556 39.75 26.2214 39.2783 28.6584 38.3348C31.0955 37.3913 33.2332 36.034 35.0714 34.263C36.9096 32.4919 38.361 30.3732 39.4256 27.9069C39.5587 27.609 39.6461 27.3483 39.6877 27.1248C39.7292 26.9014 39.75 26.7317 39.75 26.6159C39.75 26.1524 39.5878 25.7841 39.2634 25.511C38.939 25.2379 38.6188 25.1013 38.3027 25.1013C38.1198 25.1013 37.9492 25.1137 37.7912 25.1386C37.6332 25.1634 37.4211 25.2255 37.1549 25.3248C36.3065 25.6558 35.3417 25.9165 34.2604 26.1069C33.1791 26.2972 32.0562 26.3924 30.8918 26.3924ZM3.49342 19.0184C3.49342 17.0818 3.80532 15.199 4.42913 13.37C5.05297 11.541 5.94713 9.8568 7.11161 8.31745C8.27606 6.7781 9.66509 5.47047 11.2787 4.39456C10.9626 5.25528 10.7298 6.16152 10.5801 7.11326C10.4303 8.06501 10.3555 9.07883 10.3555 10.1547C10.3555 14.2431 11.1498 17.7398 12.7385 20.6447C14.3271 23.5496 16.6145 25.7717 19.6005 27.3111C22.5866 28.8504 26.1673 29.6201 30.3427 29.6201C31.3076 29.6201 32.2018 29.5621 33.0252 29.4463C33.8487 29.3304 34.668 29.1318 35.4831 28.8504C34.5016 30.3898 33.2581 31.7181 31.7526 32.8353C30.2471 33.9526 28.5586 34.8092 26.6871 35.4051C24.8157 36.0009 22.8569 36.2989 20.8107 36.2989C18.3155 36.2989 16.0115 35.8727 13.8988 35.0202C11.7861 34.1678 9.95205 32.9678 8.39666 31.4201C6.84127 29.8725 5.63521 28.0435 4.77847 25.9331C3.92177 23.8227 3.49342 21.5178 3.49342 19.0184Z"/>
</svg>
