<svg width="55" height="55" viewBox="0 0 55 55" fill="none" xmlns="http://www.w3.org/2000/svg">
<path d="M9.62595 55H45.374C48.5953 55 51.0049 54.2078 52.6029 52.6235C54.201 51.0391 55 48.6625 55 45.4938V9.50618C55 6.33748 54.201 3.96094 52.6029 2.37656C51.0049 0.792184 48.5953 0 45.374 0H9.62595C6.42987 0 4.02652 0.792184 2.41591 2.37656C0.805303 3.96094 0 6.33748 0 9.50618V45.4938C0 48.6625 0.805303 51.0391 2.41591 52.6235C4.02652 54.2078 6.42987 55 9.62595 55ZM9.70148 49.5302C8.34248 49.5302 7.29179 49.1718 6.54942 48.4551C5.80704 47.7383 5.43585 46.6632 5.43585 45.2297V9.77024C5.43585 8.36191 5.80704 7.29309 6.54942 6.56379C7.29179 5.83449 8.34248 5.46984 9.70148 5.46984H45.2986C46.6575 5.46984 47.7082 5.83449 48.4506 6.56379C49.193 7.29309 49.5642 8.36191 49.5642 9.77024V45.2297C49.5642 46.6632 49.193 47.7383 48.4506 48.4551C47.7082 49.1718 46.6575 49.5302 45.2986 49.5302H9.70148Z" fill="#34C759"/>
<path d="M13.6273 27.4623C13.6273 28.2922 13.8916 28.9649 14.4201 29.4804C14.9486 29.996 15.6532 30.2538 16.5339 30.2538H24.6877V38.4397C24.6877 39.2695 24.9394 39.9548 25.4427 40.4955C25.946 41.0362 26.6255 41.3066 27.4811 41.3066C28.3116 41.3066 28.9973 41.0362 29.5384 40.4955C30.0795 39.9548 30.35 39.2695 30.35 38.4397V30.2538H38.5038C39.3594 30.2538 40.0515 29.996 40.58 29.4804C41.1084 28.9649 41.3726 28.2922 41.3726 27.4623C41.3726 26.6072 41.1084 25.9156 40.58 25.3875C40.0515 24.8594 39.3594 24.5954 38.5038 24.5954H30.35V16.4472C30.35 15.5921 30.0795 14.8942 29.5384 14.3536C28.9973 13.8129 28.3116 13.5425 27.4811 13.5425C26.6255 13.5425 25.946 13.8129 25.4427 14.3536C24.9394 14.8942 24.6877 15.5921 24.6877 16.4472V24.5954H16.5339C15.6532 24.5954 14.9486 24.8594 14.4201 25.3875C13.8916 25.9156 13.6273 26.6072 13.6273 27.4623Z" fill="#34C759"/>
</svg>
